# xmcd
# 
# Track frame offsets:
#     150
#     20402
#     43497
#     74362
#     93207
#     117005
#     134680
#     155845
#     177047
#     193815
#     217222
#     234107
#     259535
#     285380
# 
# Disc length: 4158
# 
# Revision: 3
# Processed by: cddbd v1.5.2PL0 Copyright (c) Steve Scherf et al.
# Submitted via: BonkEnc v1.0.8
# 
DISCID=cb103c0e
DTITLE=Richard Marx - Rush Street
DYEAR=1991
DGENRE=Other
TTITLE0=Playing With Fire
TTITLE1=Lovin Unemotional
TTITLE2=Keep Coming Back
TTITLE3=Take This Heart
TTITLE4=Hazard
TTITLE5=Hands In Your Pocket
TTITLE6=Calling You
TTITLE7=Superstar
TTITLE8=Ride With Idol
TTITLE9=Streets Of Pain
TTITLE10=I Get No Sleep
TTITLE11=Big Boy Now
TTITLE12=Chains About My Heart
TTITLE13=Your World
EXTD=
EXTT0=
EXTT1=
EXTT2=
EXTT3=
EXTT4=
EXTT5=
EXTT6=
EXTT7=
EXTT8=
EXTT9=
EXTT10=
EXTT11=
EXTT12=
EXTT13=
PLAYORDER=
